<svg width="55" height="63" viewBox="0 0 55 63" fill="none" xmlns="http://www.w3.org/2000/svg">
<path d="M54.0916 58.4236L50.4074 48.6444C49.4609 46.1202 47.5651 44.0661 45.1248 42.9205C44.8545 42.7933 44.5447 42.7787 44.2636 42.8799C43.9825 42.9811 43.7531 43.1899 43.6259 43.4602C43.4987 43.7305 43.4841 44.0403 43.5853 44.3214C43.6865 44.6025 43.8952 44.8319 44.1655 44.9591C46.0752 45.8564 47.5587 47.4643 48.2997 49.4398L51.985 59.2224C52.0484 59.3929 52.0697 59.5763 52.0471 59.7568C52.0246 59.9373 51.9588 60.1097 51.8553 60.2594C51.7519 60.4091 51.6138 60.5315 51.4529 60.6164C51.292 60.7013 51.113 60.7462 50.931 60.7471L44.3328 60.7471V54.1433C44.3289 53.847 44.2085 53.5643 43.9977 53.3562C43.7868 53.148 43.5025 53.0313 43.2063 53.0313C42.91 53.0313 42.6257 53.148 42.4149 53.3562C42.204 53.5643 42.0836 53.847 42.0798 54.1433V60.7471H12.2215V54.1433C12.2171 53.8474 12.0965 53.5651 11.8857 53.3574C11.6749 53.1498 11.3909 53.0333 11.095 53.0333C10.7991 53.0333 10.515 53.1498 10.3043 53.3574C10.0935 53.5651 9.97286 53.8474 9.96848 54.1433V60.7471H3.3701C3.18775 60.7462 3.00833 60.7012 2.84714 60.6159C2.68596 60.5307 2.54779 60.4077 2.44442 60.2575C2.34105 60.1072 2.27556 59.9342 2.25352 59.7532C2.23148 59.5722 2.25355 59.3886 2.31786 59.2179L6.00041 49.442C6.42581 48.3093 7.09884 47.286 7.97036 46.4467C8.84187 45.6074 9.88985 44.9735 11.0377 44.5911L18.2569 42.1786L19.7483 50.8451C19.7844 51.0407 19.8712 51.2234 20.0001 51.3749C20.1291 51.5263 20.2956 51.6412 20.4829 51.7079C20.6703 51.7747 20.8719 51.791 21.0675 51.7552C21.2632 51.7194 21.446 51.6328 21.5976 51.5041L26.0238 47.656V54.1432C26.0282 54.4391 26.1488 54.7214 26.3596 54.9291C26.5704 55.1367 26.8544 55.2531 27.1503 55.2531C27.4462 55.2531 27.7302 55.1367 27.941 54.929C28.1518 54.7213 28.2724 54.4391 28.2768 54.1432V47.6554L32.7036 51.5046C32.856 51.6336 33.0398 51.7201 33.2363 51.7554C33.4329 51.7907 33.6352 51.7736 33.823 51.7057C34.0108 51.6378 34.1774 51.5216 34.3059 51.3687C34.4344 51.2159 34.5204 51.0319 34.555 50.8352L35.9755 42.112L40.0336 43.4965C40.3158 43.5914 40.6242 43.5707 40.8913 43.4388C41.1583 43.307 41.3623 43.0747 41.4585 42.7929C41.5548 42.5111 41.5356 42.2026 41.405 41.9349C41.2744 41.6673 41.0432 41.4622 40.7618 41.3646L35.7156 39.6429L33.6299 37.3748V34.8343C41.4047 30.2988 41.5598 22.01 40.9204 16.5943C39.256 2.33527 24.1772 2.24031 18.1796 7.08984C17.952 7.27806 17.8074 7.54814 17.7769 7.84193C17.7465 8.13572 17.8326 8.42972 18.0168 8.66063C18.2009 8.89154 18.4684 9.04089 18.7616 9.07653C19.0548 9.11217 19.3503 9.03125 19.5844 8.85118C25.4505 4.26437 38.6339 5.52364 38.8736 18.616C36.9522 20.1569 32.9439 19.7504 31.4671 19.4386C26.2065 18.3846 23.2923 11.4925 23.2637 11.4233C23.1666 11.2015 23.0011 11.0165 22.7913 10.8956C22.5815 10.7747 22.3385 10.7241 22.0979 10.7513C21.8573 10.7785 21.6317 10.882 21.4542 11.0467C21.2767 11.2113 21.1565 11.4285 21.1114 11.6664C20.2346 16.8853 17.1302 18.1761 15.4383 18.4896C15.5073 16.2317 16.0487 14.0134 17.0277 11.9776C17.1614 11.714 17.1861 11.4084 17.0965 11.1267C17.007 10.845 16.8102 10.6098 16.5488 10.4718C16.2874 10.3338 15.9822 10.3041 15.6991 10.3891C15.416 10.4741 15.1776 10.6669 15.0354 10.9261C14.1475 12.6741 13.5901 14.5711 13.3914 16.5216C12.9785 19.2434 13.0452 22.0164 13.5883 24.7152C13.939 26.7739 14.7324 28.732 15.9138 30.4541C17.0952 32.1762 18.6364 33.6213 20.4309 34.6896V37.3959L18.4815 39.7281L10.3243 42.4541C8.85877 42.9419 7.5207 43.7509 6.40792 44.8221C5.29514 45.8933 4.43575 47.1995 3.89257 48.6455L0.211187 58.4193C0.0219111 58.931 -0.0414592 59.4808 0.0264256 60.0222C0.0943104 60.5636 0.291458 61.0808 0.601224 61.5299C0.910991 61.9791 1.32428 62.3472 1.80621 62.6031C2.28814 62.8589 2.82455 62.9951 3.37017 63.0001L50.9311 63.0001C51.4763 62.995 52.0122 62.8589 52.4938 62.6033C52.9754 62.3478 53.3885 61.9802 53.6983 61.5316C54.0081 61.083 54.2055 60.5665 54.274 60.0256C54.3425 59.4847 54.2799 58.9353 54.0916 58.4236ZM27.1304 43.2941L22.684 37.4356V35.7702C24.1212 36.3159 25.6221 36.6763 27.1503 36.8426C28.593 36.6834 30.0117 36.354 31.3769 35.8613V37.4452L27.1304 43.2941ZM33.8778 40.9727L32.6563 48.4777L28.6682 45.0101L32.6051 39.5889L33.8778 40.9727ZM16.6269 27.0071C18.8011 28.3108 21.1254 29.346 23.5488 30.0901C23.7684 30.6613 24.1556 31.1526 24.6596 31.4997C25.1636 31.8467 25.7607 32.0332 26.3726 32.0346H28.2223C29.0272 32.0346 29.799 31.7149 30.3681 31.1458C30.9372 30.5767 31.257 29.8048 31.257 29C31.257 28.1952 30.9372 27.4233 30.3681 26.8542C29.799 26.2851 29.0272 25.9654 28.2223 25.9654H26.3725C25.7879 25.9666 25.2161 26.1367 24.7259 26.4552C24.2357 26.7736 23.8478 27.2269 23.6091 27.7605C20.828 26.7621 18.1762 25.435 15.71 23.8074C15.529 22.7994 15.4235 21.7794 15.3944 20.7557C17.0134 20.5379 18.5404 19.8754 19.8056 18.8419C21.0708 17.8083 22.0247 16.4443 22.5612 14.9012C24.8276 18.6541 28.6006 22.2176 34.488 21.9807C35.9929 22.0142 37.4893 21.7458 38.8887 21.1914C38.6985 25.1179 37.3874 30.4269 32.1536 33.0788C30.5838 33.8617 28.8913 34.3694 27.1498 34.5797C22.3933 33.9692 18.426 31.5383 16.6269 27.0071ZM25.5909 29C25.5911 28.7928 25.6735 28.594 25.82 28.4475C25.9666 28.3009 26.1653 28.2185 26.3725 28.2184H28.2223C28.4296 28.2184 28.6284 28.3007 28.775 28.4473C28.9216 28.5939 29.004 28.7927 29.004 29C29.004 29.2073 28.9216 29.4061 28.775 29.5527C28.6284 29.6993 28.4296 29.7816 28.2223 29.7816H26.3725C26.1653 29.7815 25.9666 29.6991 25.82 29.5525C25.6735 29.406 25.5911 29.2073 25.5909 29ZM21.511 39.6162L25.6158 45.0246L21.629 48.491L20.3423 41.0145L21.511 39.6162Z" fill="#F2CCA2"/>
<path d="M7.77946 27.9042H10.9065C11.2053 27.9041 11.4918 27.7855 11.703 27.5742C11.9143 27.363 12.033 27.0765 12.033 26.7777V16.3587C12.8601 -2.46406 41.4428 -2.4605 42.2681 16.3587L42.268 26.7777C42.268 26.9256 42.2971 27.0721 42.3537 27.2088C42.4103 27.3455 42.4933 27.4697 42.5979 27.5743C42.7025 27.6789 42.8267 27.7619 42.9634 27.8185C43.1001 27.8751 43.2466 27.9042 43.3945 27.9042H46.5221C47.3933 27.9032 48.2285 27.5566 48.8445 26.9406C49.4605 26.3246 49.807 25.4893 49.808 24.6182V18.5182C49.807 17.647 49.4605 16.8117 48.8445 16.1957C48.2285 15.5797 47.3933 15.2332 46.5221 15.2322H44.4607C42.3175 -5.07899 11.9815 -5.07585 9.84026 15.2324L7.77946 15.2322C6.90827 15.2332 6.07306 15.5797 5.45704 16.1957C4.84102 16.8117 4.49452 17.647 4.49353 18.5182V24.6182C4.49452 25.4893 4.84103 26.3246 5.45704 26.9406C6.07306 27.5566 6.90827 27.9032 7.77946 27.9042ZM44.521 17.4851H46.5221C46.796 17.4854 47.0586 17.5943 47.2523 17.788C47.4459 17.9817 47.5548 18.2443 47.5551 18.5182V24.6182C47.5548 24.892 47.4459 25.1547 47.2523 25.3483C47.0586 25.542 46.796 25.6509 46.5221 25.6512H44.521V17.4851ZM6.74652 18.5182C6.74673 18.2443 6.85562 17.9816 7.04929 17.788C7.24295 17.5943 7.50556 17.4854 7.77946 17.4851H9.77997V25.6512H7.77946C7.50556 25.6509 7.24295 25.542 7.04929 25.3484C6.85562 25.1547 6.74673 24.8921 6.74652 24.6182V18.5182Z" fill="#F2CCA2"/>
</svg>
