<svg width="30" height="31" viewBox="0 0 30 31" fill="none" xmlns="http://www.w3.org/2000/svg">
<path d="M14.9827 0.612793C6.72131 0.612793 0 7.2544 0 15.4178C0 18.6235 1.00986 21.65 2.92745 24.2094L0.122216 28.9097C-0.218468 29.4808 0.211188 30.2228 0.881333 30.2228H14.9827C18.4566 30.2228 21.8423 29.0197 24.5161 26.8356C24.8913 26.5289 24.9441 25.9801 24.634 25.6093C24.3242 25.239 23.7679 25.1863 23.3932 25.493C21.0344 27.4196 18.0475 28.481 14.9827 28.481H2.42424L4.74864 24.5864C4.93483 24.2746 4.90614 23.8811 4.67663 23.5988C2.77023 21.2543 1.76267 18.4251 1.76267 15.4178C1.76267 8.21487 7.69301 2.35456 14.9827 2.35456C22.2723 2.35456 28.2027 8.21487 28.2027 15.4178C28.2027 18.2079 27.323 20.8687 25.6585 23.1123C25.3707 23.5001 25.4557 24.045 25.8484 24.3296C26.2409 24.6131 26.7929 24.5303 27.0803 24.1419C28.9678 21.5979 29.9653 18.581 29.9653 15.4178C29.9653 7.2544 23.244 0.612793 14.9827 0.612793Z" fill="#FFFBF7"/>
<path d="M10.8699 20.3524C10.383 20.3524 9.98853 20.7425 9.98853 21.2233V24.1262C9.98853 24.607 10.383 24.9971 10.8699 24.9971H19.0956C19.5825 24.9971 19.977 24.607 19.977 24.1262V21.2233C19.977 20.7425 19.5825 20.3524 19.0956 20.3524H17.6267V11.3533C17.6267 10.8725 17.2323 10.4824 16.7454 10.4824H10.8699C10.383 10.4824 9.98853 10.8725 9.98853 11.3533V14.8368C9.98853 15.3176 10.383 15.7077 10.8699 15.7077H12.3387V20.3524H10.8699ZM13.2201 13.966H11.7512V12.2242H15.8641V21.2233C15.8641 21.7041 16.2586 22.0942 16.7454 22.0942H18.2143V23.2554H11.7512V22.0942H13.2201C13.7069 22.0942 14.1014 21.7041 14.1014 21.2233V14.8368C14.1014 14.356 13.7069 13.966 13.2201 13.966Z" fill="#FFFBF7"/>
<path d="M17.6267 7.2894C17.6267 5.84871 16.4407 4.67676 14.9827 4.67676C13.5248 4.67676 12.3387 5.84871 12.3387 7.2894C12.3387 8.7301 13.5248 9.90205 14.9827 9.90205C16.4407 9.90205 17.6267 8.7301 17.6267 7.2894ZM14.1014 7.2894C14.1014 6.80917 14.4967 6.41852 14.9827 6.41852C15.4687 6.41852 15.8641 6.80917 15.8641 7.2894C15.8641 7.76964 15.4687 8.16029 14.9827 8.16029C14.4967 8.16029 14.1014 7.76964 14.1014 7.2894Z" fill="#FFFBF7"/>
</svg>
