<svg width="19" height="15" viewBox="0 0 19 15" fill="none" xmlns="http://www.w3.org/2000/svg">
<path fill-rule="evenodd" clip-rule="evenodd" d="M14.0817 0C14.2907 0 14.4908 0.0913556 14.6363 0.253211L18.7564 4.83654C19.0535 5.16694 19.0459 5.69456 18.7396 6.01489C18.4333 6.33533 17.9442 6.32722 17.6473 5.99678L14.8542 2.88978V14.1667C14.8542 14.6269 14.5083 15 14.0817 15C13.655 15 13.3092 14.6269 13.3092 14.1667V2.88978L10.5161 5.99678C10.2192 6.32722 9.73009 6.33533 9.42376 6.01489C9.11743 5.69456 9.10991 5.16694 9.40697 4.83654L13.5271 0.253211C13.6726 0.0913556 13.8727 0 14.0817 0ZM5.8414 0C6.26805 0 6.61393 0.3731 6.61393 0.833333V12.1102L9.40697 9.00322C9.70393 8.67278 10.193 8.66467 10.4993 8.98511C10.8057 9.30544 10.8132 9.833 10.5161 10.1634L6.396 14.7468C6.2505 14.9087 6.0504 15 5.8414 15C5.63239 15 5.4323 14.9087 5.28681 14.7468L1.16666 10.1634C0.869644 9.833 0.877173 9.30544 1.18346 8.98511C1.48977 8.66467 1.97884 8.67278 2.27586 9.00322L5.06887 12.1102V0.833333C5.06887 0.3731 5.41475 0 5.8414 0Z" fill="#D19E52"/>
</svg>
