<svg width="16" height="20" viewBox="0 0 16 20" fill="none" xmlns="http://www.w3.org/2000/svg">
<path d="M7.6476 10.0007C6.63925 10.0007 5.65355 9.70743 4.81515 9.15798C3.97674 8.60854 3.32328 7.82759 2.9374 6.9139C2.55153 6.0002 2.45056 4.9948 2.64728 4.02483C2.844 3.05486 3.32956 2.16388 4.04257 1.46457C4.75558 0.765259 5.664 0.289022 6.65297 0.0960825C7.64194 -0.096857 8.66704 0.00216658 9.59863 0.380631C10.5302 0.759095 11.3265 1.4 11.8867 2.2223C12.4469 3.04461 12.7459 4.01137 12.7459 5.00035C12.7445 6.32612 12.207 7.59721 11.2511 8.53467C10.2953 9.47213 8.99933 9.99937 7.6476 10.0007V10.0007ZM7.6476 1.66678C6.97537 1.66678 6.31824 1.86229 5.7593 2.22859C5.20036 2.59489 4.76472 3.11552 4.50747 3.72465C4.25022 4.33378 4.18291 5.00405 4.31405 5.65069C4.4452 6.29734 4.76891 6.89133 5.24425 7.35753C5.71958 7.82374 6.3252 8.14123 6.98452 8.26986C7.64383 8.39849 8.32722 8.33247 8.94828 8.08016C9.56934 7.82785 10.1002 7.40058 10.4736 6.85238C10.8471 6.30418 11.0465 5.65967 11.0465 5.00035C11.0465 4.11623 10.6884 3.26833 10.051 2.64316C9.41354 2.018 8.54903 1.66678 7.6476 1.66678Z" fill="#23282C" fill-opacity="0.7"/>
<path d="M15.2948 20.0004H13.5954V15.7976C13.5945 15.1443 13.3295 14.518 12.8585 14.056C12.3875 13.5941 11.7489 13.3342 11.0828 13.3333H4.21203C3.54592 13.3342 2.90735 13.5941 2.43634 14.056C1.96533 14.518 1.70033 15.1443 1.69943 15.7976V20.0004H0V15.7976C0.0013492 14.7024 0.445549 13.6524 1.23516 12.8779C2.02478 12.1035 3.09534 11.6678 4.21203 11.6665H11.0828C12.1995 11.6678 13.2701 12.1035 14.0597 12.8779C14.8493 13.6524 15.2935 14.7024 15.2948 15.7976V20.0004Z" fill="#23282C" fill-opacity="0.7"/>
</svg>
