<svg width="75" height="63" viewBox="0 0 75 63" fill="none" xmlns="http://www.w3.org/2000/svg">
<path d="M44.4265 61.6943H45.1887C45.0682 61.7308 44.94 61.7502 44.8076 61.7502C44.6752 61.7502 44.547 61.7308 44.4265 61.6943Z" fill="#F2CCA2"/>
<path d="M49.3727 52.8525C48.7135 53.4383 48.1323 54.1078 47.6507 54.864C47.0891 54.2072 46.4346 53.6233 45.6953 53.1194C46.1912 52.3992 46.7642 51.7325 47.4078 51.125C48.1304 51.6389 48.7873 52.2161 49.3727 52.8525Z" fill="#F2CCA2"/>
<path d="M74.2497 60.4453C74.2497 61.1659 73.6619 61.7503 72.936 61.7503C72.21 61.7503 71.6217 61.1659 71.6217 60.4453C71.6217 53.8857 66.7262 49.6476 59.1513 49.6476H58.8726C56.2832 49.6476 53.6837 50.2035 51.514 51.369C50.9147 50.6909 50.2502 50.0649 49.5271 49.4962C50.697 48.7665 52.0113 48.1845 53.447 47.7705C55.1057 47.2917 56.9258 47.0371 58.8726 47.0371H59.1513C61.0277 47.0371 62.7763 47.2699 64.3688 47.7104C70.4418 49.3897 74.2497 54.0916 74.2497 60.4453Z" fill="#F2CCA2"/>
<path d="M58.8728 32.166C54.0355 32.166 50.0999 36.0862 50.0999 40.9049C50.0999 43.6862 51.4098 46.1685 53.4472 47.7706C54.9415 48.946 56.8264 49.6477 58.8728 49.6477C60.9192 49.6477 62.8646 48.9218 64.369 47.7105C66.3611 46.1065 67.6377 43.6517 67.6377 40.9049C67.6377 36.0862 63.7059 32.166 58.8728 32.166ZM58.8728 47.0372C55.4841 47.0372 52.7279 44.2867 52.7279 40.9049C52.7279 37.5232 55.4841 34.7765 58.8728 34.7765C62.2616 34.7765 65.0097 37.5261 65.0097 40.9049C65.0097 44.2838 62.2568 47.0372 58.8728 47.0372Z" fill="#F2CCA2"/>
<path d="M20.8742 47.7104C22.4161 48.1368 23.8123 48.7585 25.037 49.5529C24.3173 50.1165 23.6561 50.7359 23.0587 51.4059C21.0685 50.2698 18.5596 49.6476 15.6581 49.6476H15.3781C9.03162 49.6476 2.62803 52.9867 2.62803 60.4453C2.62803 61.1659 2.04069 61.7503 1.31425 61.7503C0.587818 61.7503 0 61.1659 0 60.4453C0 54.2477 3.89703 49.5175 9.95336 47.7705C11.6115 47.2917 13.4317 47.0371 15.3781 47.0371H15.6581C17.534 47.0371 19.2822 47.2699 20.8742 47.7104Z" fill="#F2CCA2"/>
<path d="M28.7858 53.3093C28.0461 53.8212 27.3758 54.4184 26.798 55.1026C26.3607 54.3303 25.821 53.6291 25.1865 53.0064C25.7739 52.3686 26.4317 51.7866 27.1543 51.2661C27.7722 51.8879 28.3181 52.5706 28.7858 53.3093Z" fill="#F2CCA2"/>
<path d="M29.8205 61.6943C29.7 61.7308 29.5723 61.7502 29.4399 61.7502C29.3075 61.7502 29.1794 61.7308 29.0588 61.6943H29.8205Z" fill="#F2CCA2"/>
<path d="M15.3782 32.166C10.5418 32.166 6.6062 36.0862 6.6062 40.9049C6.6062 43.6862 7.91617 46.1685 9.95352 47.7706C11.4474 48.946 13.3318 49.6477 15.3782 49.6477C17.4246 49.6477 19.37 48.9218 20.8744 47.7105C22.8665 46.1065 24.1431 43.6517 24.1431 40.9049C24.1431 36.0862 20.2113 32.166 15.3782 32.166ZM15.3782 47.0372C11.9904 47.0372 9.23423 44.2867 9.23423 40.9049C9.23423 37.5232 11.9904 34.7765 15.3782 34.7765C18.766 34.7765 21.515 37.5261 21.515 40.9049C21.515 44.2838 18.7627 47.0372 15.3782 47.0372Z" fill="#F2CCA2"/>
<path d="M49.3729 52.8533C48.7875 52.2169 48.1306 51.6396 47.4079 51.1258C46.0737 50.1761 44.5151 49.4436 42.7697 48.961C44.7623 47.3575 46.0384 44.9031 46.0384 42.1573C46.0384 37.3377 42.1066 33.417 37.2726 33.417C32.4386 33.417 28.503 37.3377 28.503 42.1573C28.503 44.9377 29.8125 47.419 31.8484 49.0216C30.0869 49.5298 28.5078 50.2901 27.1544 51.2663C26.4318 51.7868 25.774 52.3688 25.1866 53.0066C23.0912 55.2811 21.896 58.263 21.896 61.6949C21.896 62.4155 22.4838 62.9999 23.2098 62.9999C23.9357 62.9999 24.524 62.4155 24.524 61.6949C24.524 58.9538 25.3891 56.7697 26.7981 55.1027C27.3759 54.4185 28.0462 53.8214 28.7859 53.3094C31.1472 51.6732 34.2168 50.8986 37.2726 50.8986H37.5537C40.8281 50.8986 43.6014 51.6907 45.6955 53.1202C46.4348 53.6241 47.0893 54.208 47.6509 54.8647C49.179 56.65 50.0226 58.9723 50.0226 61.6949C50.0226 62.4155 50.61 62.9999 51.3369 62.9999C52.0638 62.9999 52.6507 62.4155 52.6507 61.6949C52.6507 58.1566 51.4693 55.1302 49.3729 52.8533ZM31.131 42.1573C31.131 38.7775 33.8862 36.0275 37.2726 36.0275C40.659 36.0275 43.4104 38.7775 43.4104 42.1573C43.4104 45.5372 40.6566 48.2882 37.2726 48.2882C33.8886 48.2882 31.131 45.5377 31.131 42.1573Z" fill="#F2CCA2"/>
<path d="M52.6507 61.6948C52.6507 62.4154 52.0629 62.9998 51.3369 62.9998C50.6109 62.9998 50.0226 62.4154 50.0226 61.6948C50.0226 58.9722 49.179 56.6499 47.6509 54.8646C47.0893 54.2079 46.4348 53.624 45.6955 53.1201C43.6014 51.6906 40.8281 50.8985 37.5537 50.8985H37.2726C34.2168 50.8985 31.1472 51.6731 28.7859 53.3093C28.0462 53.8213 27.3759 54.4184 26.7981 55.1026C25.3891 56.7696 24.524 58.9538 24.524 61.6948C24.524 62.4154 23.9362 62.9998 23.2098 62.9998C22.4833 62.9998 21.896 62.4154 21.896 61.6948C21.896 58.2629 23.0912 55.281 25.1866 53.0065C25.774 52.3687 26.4318 51.7867 27.1544 51.2662C28.5078 50.2901 30.0869 49.5297 31.8484 49.0215C33.5066 48.5431 35.3267 48.2881 37.2726 48.2881H37.5537C39.4295 48.2881 41.1773 48.5204 42.7697 48.9609C44.5151 49.4436 46.0737 50.176 47.4079 51.1257C48.1306 51.6395 48.7875 52.2168 49.3729 52.8532C51.4693 55.1301 52.6507 58.1565 52.6507 61.6948Z" fill="#F2CCA2"/>
<path d="M37.2728 33.417C32.4378 33.417 28.5032 37.3377 28.5032 42.1573C28.5032 44.9377 29.8127 47.419 31.8486 49.0216C33.342 50.1965 35.2269 50.8986 37.2728 50.8986C39.3187 50.8986 41.2656 50.1728 42.7699 48.961C44.7625 47.3575 46.0386 44.9031 46.0386 42.1573C46.0386 37.3377 42.1068 33.417 37.2728 33.417ZM37.2728 48.2882C33.8864 48.2882 31.1312 45.5377 31.1312 42.1573C31.1312 38.777 33.8864 36.0275 37.2728 36.0275C40.6592 36.0275 43.4106 38.7775 43.4106 42.1573C43.4106 45.5372 40.6568 48.2882 37.2728 48.2882Z" fill="#F2CCA2"/>
<path d="M37.1394 29.7755C36.8417 29.7755 36.5449 29.6761 36.3029 29.4764L29.3758 23.7894H6.5524C4.67987 23.7894 3.15649 22.2692 3.15649 20.4016V3.38551C3.15697 1.51887 4.68034 0 6.5524 0H67.685C69.5594 0 71.0842 1.51887 71.0842 3.38551V20.4016C71.0842 22.2692 69.5599 23.7894 67.685 23.7894H44.9092L37.9759 29.4764C37.7334 29.6756 37.4357 29.7755 37.1394 29.7755ZM6.5524 2.61046C6.12845 2.61046 5.78452 2.95824 5.78452 3.38551V20.4016C5.78452 20.8303 6.12845 21.179 6.5524 21.179H29.8479C30.1537 21.179 30.45 21.2845 30.6844 21.478L37.1394 26.7775L43.6006 21.478C43.835 21.285 44.1318 21.179 44.4371 21.179H67.685C68.1099 21.179 68.4562 20.8303 68.4562 20.4016V3.38551C68.4562 2.95824 68.1099 2.61046 67.685 2.61046H6.5524Z" fill="#F2CCA2"/>
<path d="M44.5819 9.75142C44.5038 9.51011 44.278 9.34639 44.0227 9.34639H39.4883L38.0874 5.06233C38.0083 4.82196 37.783 4.65967 37.5286 4.65967C37.2742 4.65967 37.0489 4.82196 36.9698 5.06233L35.5689 9.34639H31.0345C30.7792 9.34639 30.5539 9.50963 30.4753 9.75142C30.3971 9.99274 30.4848 10.2568 30.692 10.4044L34.3556 13.013L32.9566 17.254C32.8775 17.4943 32.9633 17.7579 33.169 17.9074C33.3748 18.056 33.6535 18.0565 33.8602 17.9079L37.5277 15.2662L41.196 17.9226C41.2994 17.9973 41.4209 18.0347 41.5419 18.0347C41.6629 18.0347 41.7843 17.9973 41.8872 17.9235C42.0935 17.7749 42.1792 17.5109 42.1006 17.2701L40.7006 13.0106L44.3643 10.4039C44.5719 10.2563 44.6596 9.99226 44.5815 9.75095L44.5819 9.75142Z" fill="#F2CCA2"/>
<path d="M56.4683 11.1778C56.3959 10.9531 56.1858 10.8007 55.9486 10.8007H52.6213L51.5933 7.65748C51.5204 7.43462 51.3108 7.2832 51.0741 7.2832C50.8373 7.2832 50.6282 7.43462 50.5553 7.65748L49.5269 10.8007H46.2001C45.9628 10.8007 45.7528 10.9531 45.6804 11.1778C45.608 11.4021 45.6899 11.6472 45.8833 11.7844L48.5689 13.688L47.5434 16.7877C47.4695 17.0115 47.5491 17.2566 47.7401 17.3948C47.9311 17.5334 48.1907 17.5339 48.3822 17.3962L51.0731 15.4586L53.765 17.4104C53.8607 17.48 53.9736 17.515 54.087 17.515C54.2004 17.515 54.3118 17.4804 54.4076 17.4114C54.5991 17.2732 54.6791 17.0281 54.6053 16.8043L53.5792 13.6861L56.2654 11.7844C56.4588 11.6477 56.5407 11.4026 56.4683 11.1778Z" fill="#F2CCA2"/>
<path d="M65.3763 12.3094C65.322 12.14 65.1634 12.0245 64.9838 12.0245H62.471L61.6951 9.65065C61.6398 9.4822 61.4816 9.36816 61.3025 9.36816C61.1234 9.36816 60.9658 9.4822 60.9105 9.65065L60.1345 12.0245H57.6222C57.4431 12.0245 57.2845 12.1395 57.2297 12.3089C57.1754 12.4783 57.2369 12.6638 57.3831 12.7674L59.4109 14.2044L58.6369 16.5456C58.5811 16.7146 58.6407 16.8991 58.785 17.0041C58.9298 17.1087 59.1256 17.1092 59.2704 17.0051L61.3021 15.5421L63.3351 17.016C63.4075 17.0685 63.4928 17.095 63.5781 17.095C63.6633 17.095 63.7481 17.0685 63.8201 17.0164C63.9649 16.9123 64.0249 16.7273 63.9696 16.5584L63.1946 14.2035L65.2229 12.7674C65.3691 12.6642 65.4311 12.4792 65.3763 12.3094Z" fill="#F2CCA2"/>
<path d="M29.3767 11.1778C29.3043 10.9531 29.0943 10.8007 28.857 10.8007H25.5297L24.5018 7.65748C24.4284 7.43462 24.2193 7.2832 23.9825 7.2832C23.7458 7.2832 23.5367 7.43462 23.4633 7.65748L22.4353 10.8007H19.1085C18.8713 10.8007 18.6612 10.9531 18.5888 11.1778C18.5164 11.4026 18.5983 11.6477 18.7917 11.7844L21.4774 13.6861L20.4513 16.8043C20.378 17.0281 20.458 17.2732 20.6495 17.4114C20.7452 17.4804 20.8577 17.515 20.9701 17.515C21.0825 17.515 21.1964 17.48 21.2921 17.4104L23.984 15.4586L26.6749 17.3962C26.8664 17.5339 27.1255 17.5334 27.317 17.3948C27.508 17.2566 27.5876 17.0115 27.5137 16.7877L26.4881 13.688L29.1738 11.7844C29.3672 11.6472 29.4491 11.4021 29.3767 11.1778Z" fill="#F2CCA2"/>
<path d="M17.6836 12.3089C17.6288 12.1395 17.4702 12.0245 17.2911 12.0245H14.7788L14.0024 9.65065C13.9476 9.4822 13.7894 9.36816 13.6103 9.36816C13.4312 9.36816 13.2736 9.4822 13.2183 9.65065L12.4419 12.0245H9.92957C9.75094 12.0245 9.59184 12.1395 9.53706 12.3094C9.48228 12.4788 9.5442 12.6642 9.69044 12.7674L11.7187 14.2035L10.9437 16.5584C10.888 16.7273 10.9485 16.9123 11.0933 17.0164C11.1657 17.0685 11.2505 17.095 11.3353 17.095C11.4201 17.095 11.5058 17.0685 11.5782 17.016L13.6108 15.5421L15.6429 17.0051C15.7877 17.1092 15.9835 17.1087 16.1279 17.0041C16.2727 16.8991 16.3322 16.7146 16.2765 16.5456L15.5024 14.2044L17.5302 12.7674C17.6765 12.6638 17.7379 12.4788 17.6836 12.3089Z" fill="#F2CCA2"/>
</svg>
