<svg version="1.2" xmlns="http://www.w3.org/2000/svg" viewBox="0 0 314 222" width="314" height="222"><style>.a{fill:#02c094}.b{fill:#fff;stroke:#000;stroke-width:6.5}</style><path fill-rule="evenodd" class="a" d="m289.1 30.7c0 0-97.9-66.6-244.6 20.4 0 0-71.1 31.3-19.8 93.5q3.8 4 7.8 7.8 4 3.8 8.2 7.4 4.2 3.6 8.5 7 4.4 3.4 8.9 6.7c5 3.6 10.4 7.2 14.5 9.6q3.6 2 7.2 3.9 3.7 1.8 7.4 3.3 3.8 1.6 7.6 2.9 3.9 1.4 7.8 2.4c20.8 5.8 44.2 5.5 66.7-0.1 33.4-8.2 56.2-32.3 93.3-66.8 30.6-28.5 50.5-46.2 47-68.5-1.8-11.1-9.1-21-20.5-29.5z"/><path fill-rule="evenodd" class="b" d="m152.3 29.4l-21 66.9-78.1 0.1 63.4 42.1-29.6 68.3 63.4-48.1 63.4 47.9-33.9-68.2 64.8-43.1-71.2 0.7z"/></svg>