<?xml version="1.0" encoding="utf-8"?>
<!-- Generator: Adobe Illustrator 28.1.0, SVG Export Plug-In . SVG Version: 6.00 Build 0)  -->
<svg version="1.1" id="Layer_1" xmlns="http://www.w3.org/2000/svg" xmlns:xlink="http://www.w3.org/1999/xlink" x="0px" y="0px"
	 viewBox="0 0 512 512" style="enable-background:new 0 0 512 512;" xml:space="preserve">
<style type="text/css">
	.st0{fill:#CA9F44;}
</style>
<g>
	<g>
		<path class="st0" d="M254.8,357.9c-1.3-1.3-3.2-2.1-5-2.1c-1.9,0-3.7,0.8-5,2.1c-1.3,1.3-2.1,3.2-2.1,5c0,1.9,0.8,3.7,2.1,5
			s3.2,2.1,5,2.1c1.9,0,3.7-0.8,5-2.1c1.3-1.3,2.1-3.2,2.1-5C256.9,361,256.1,359.2,254.8,357.9z"/>
	</g>
</g>
<g>
	<g>
		<path class="st0" d="M288.6,292.4v-52.3c0-2.4-1.2-4.6-3.1-5.9c-2-1.3-4.4-1.6-6.6-0.7l-122.4,49.3h-39.4
			c-22.5,0-40.8,18.3-40.8,40.8s18.3,40.8,40.8,40.8h4.7V407c0,3.9,3.2,7.1,7.1,7.1h29c3.9,0,7.1-3.2,7.1-7.1v-39.2l113.9,45.8
			c0.9,0.3,1.8,0.5,2.6,0.5c1.4,0,2.8-0.4,4-1.2c2-1.3,3.1-3.5,3.1-5.9v-52.2c14.2-3.2,24.9-16,24.9-31.2
			C313.5,308.4,302.9,295.6,288.6,292.4z M150.8,399.9H136v-35.5h14.8V399.9L150.8,399.9z M150.8,350.2h-33.7
			c-14.7,0-26.6-11.9-26.6-26.6s11.9-26.6,26.6-26.6h33.7V350.2z M274.4,396.5L274.4,396.5l-109.4-44v-57.8l77.7-31.3v70.5
			c0,3.9,3.2,7.1,7.1,7.1c3.9,0,7.1-3.2,7.1-7.1v-76.2l17.5-7.1V396.5z M288.6,339.9v-32.6c6.3,2.7,10.7,9,10.7,16.3
			S294.9,337.1,288.6,339.9z"/>
	</g>
</g>
<g>
	<g>
		<path class="st0" d="M381.3,316.7h-40.2c-3.9,0-7.1,3.2-7.1,7.1s3.2,7.1,7.1,7.1h40.2c3.9,0,7.1-3.2,7.1-7.1
			C388.4,319.9,385.2,316.7,381.3,316.7z"/>
	</g>
</g>
<g>
	<g>
		<path class="st0" d="M348.3,264.6c-2.8-2.8-7.3-2.8-10,0l-13.9,13.9c-2.8,2.8-2.8,7.3,0,10c1.4,1.4,3.2,2.1,5,2.1s3.6-0.7,5-2.1
			l13.9-13.9C351.1,271.9,351.1,267.4,348.3,264.6z"/>
	</g>
</g>
<g>
	<g>
		<path class="st0" d="M348.8,372.2l-14.3-14.3c-2.8-2.8-7.3-2.8-10,0c-2.8,2.8-2.8,7.3,0,10l14.3,14.3c1.4,1.4,3.2,2.1,5,2.1
			s3.6-0.7,5-2.1C351.6,379.5,351.6,375,348.8,372.2z"/>
	</g>
</g>
<g>
	<g>
		<path class="st0" d="M411.5,50.6H279.4C263.7,50.6,251,63.3,251,79v2.8H131.7c-9.4,0-17,7.6-17,17V211c0,9.4,7.6,17,17,17h7.3
			v21.8c0,2.9,1.7,5.5,4.4,6.6c0.9,0.4,1.8,0.5,2.7,0.5c1.8,0,3.7-0.7,5-2.1l26.8-26.8H319c9.4,0,17-7.6,17-17v-21.3h75.4
			c15.7,0,28.4-12.7,28.4-28.4V79C439.9,63.3,427.1,50.6,411.5,50.6z M321.8,211c0,1.6-1.3,2.8-2.8,2.8H175c-1.9,0-3.7,0.7-5,2.1
			l-16.8,16.8V221c0-3.9-3.2-7.1-7.1-7.1h-14.4c-1.6,0-2.8-1.3-2.8-2.8V98.8c0-1.6,1.3-2.8,2.8-2.8H251v65.3
			c0,15.7,12.7,28.4,28.4,28.4h42.4V211z M425.7,161.3c0,7.8-6.4,14.2-14.2,14.2H279.4c-7.8,0-14.2-6.4-14.2-14.2V79
			c0-7.8,6.4-14.2,14.2-14.2h132.1c7.8,0,14.2,6.4,14.2,14.2V161.3z"/>
	</g>
</g>
<g>
	<g>
		<path class="st0" d="M374,114l-48.6-28.1c-2.2-1.3-4.9-1.3-7.1,0s-3.6,3.6-3.6,6.1v56.1c0,2.5,1.4,4.9,3.6,6.1
			c1.1,0.6,2.3,1,3.6,1c1.2,0,2.5-0.3,3.6-1l48.6-28.1c2.2-1.3,3.6-3.6,3.6-6.1C377.5,117.6,376.2,115.3,374,114z M328.9,135.9
			v-31.5l27.3,15.8L328.9,135.9z"/>
	</g>
</g>
<g>
	<g>
		<path class="st0" d="M228.6,125.1h-71c-3.9,0-7.1,3.2-7.1,7.1s3.2,7.1,7.1,7.1h71c3.9,0,7.1-3.2,7.1-7.1
			C235.7,128.3,232.6,125.1,228.6,125.1z"/>
	</g>
</g>
<g>
	<g>
		<path class="st0" d="M233.7,167c-1.3-1.3-3.2-2.1-5-2.1c-1.9,0-3.7,0.8-5,2.1s-2.1,3.2-2.1,5c0,1.9,0.8,3.7,2.1,5s3.2,2.1,5,2.1
			c1.9,0,3.7-0.8,5-2.1s2.1-3.2,2.1-5C235.7,170.1,235,168.3,233.7,167z"/>
	</g>
</g>
<g>
	<g>
		<path class="st0" d="M202,164.9h-44.4c-3.9,0-7.1,3.2-7.1,7.1s3.2,7.1,7.1,7.1H202c3.9,0,7.1-3.2,7.1-7.1S205.9,164.9,202,164.9z"
			/>
	</g>
</g>
</svg>
