<?xml version="1.0" encoding="utf-8"?>
<!-- Generator: Adobe Illustrator 28.1.0, SVG Export Plug-In . SVG Version: 6.00 Build 0)  -->
<svg version="1.1" id="Layer_1" xmlns="http://www.w3.org/2000/svg" xmlns:xlink="http://www.w3.org/1999/xlink" x="0px" y="0px"
	 viewBox="0 0 512 512" style="enable-background:new 0 0 512 512;" xml:space="preserve">
<style type="text/css">
	.st0{fill:#CA9F44;}
</style>
<g id="New_Year">
	<path class="st0" d="M347.6,283.2l-36.4,33.3c-8.4,7.3,3.5,20,11.4,12.5l36.4-33.3c11.1-5.6,10.6,8.4,2.6,12.6
		c-9.3,13.4,10,19.7,16.9,7.1c8.3-9.1,7.8-23.2-1.3-31.5c-8.2-7.6-20.9-7.9-29.5-0.7H347.6z"/>
	<path class="st0" d="M322.7,242.7c-7.9-7.9-20.6-7.9-28.5-0.1l-0.1,0.1l-4.3,4.1c-3.3,3.3-3.3,8.7,0,12s8.7,3.3,12,0
		c2.5-4.8,12.3-8.4,9,0l-28.4,31c-7.5,7.9,5.2,19.6,12.5,11.4l28.7-30.6C330.9,262.6,330.5,250.2,322.7,242.7z"/>
	<path class="st0" d="M416.4,128.5h-33.8V94.7c0-14-11.3-25.3-25.3-25.3h-33.8c-14,0-25.3,11.3-25.3,25.3v33.8h-84.4V94.7
		c0-14-11.3-25.3-25.3-25.3h-33.8c-14,0-25.3,11.3-25.3,25.3v33.8H95.6c-23.3,0-42.2,18.9-42.2,42.2v202.7
		c0,23.3,18.9,42.2,42.2,42.2h50.7L128.7,441c-2.2,3.2-2,7.6,0.7,10.5l20.7,20.7c2.9,2.9,7.5,3.3,10.9,0.8l80-57.3h175.6
		c23.3,0,42.2-18.9,42.2-42.2V170.7C458.7,147.4,439.8,128.5,416.4,128.5z M315.1,94.7c0-4.7,3.8-8.4,8.4-8.4h33.8
		c4.7,0,8.4,3.8,8.4,8.4v59.1c0,4.7-3.8,8.4-8.4,8.4h-33.8c-4.7,0-8.4-3.8-8.4-8.4V94.7z M146.2,94.7c0-4.7,3.8-8.4,8.4-8.4h33.8
		c4.7,0,8.4,3.8,8.4,8.4v59.1c0,4.7-3.8,8.4-8.4,8.4h-33.8c-4.7,0-8.4-3.8-8.4-8.4V94.7z M95.6,145.4h33.8v8.4
		c0,14,11.3,25.3,25.3,25.3h33.8c14,0,25.3-11.3,25.3-25.3v-8.4h84.4v8.4c0,14,11.3,25.3,25.3,25.3h33.8c14,0,25.3-11.3,25.3-25.3
		v-8.4h33.8c14,0,25.3,11.3,25.3,25.3v38H70.2v-38C70.2,156.7,81.6,145.4,95.6,145.4z M210.9,416.4c-7.6-11.7-13.3-24.6-16.9-38.1
		l13.3-18.7c2.3,16.6,8.1,32.6,16.9,46.9L210.9,416.4z M238.5,396.5c-10.3-17.6-15.7-37.6-15.8-57.9l20.4-28.4l48.2,48.2
		L238.5,396.5z M157.1,455.1l-10.9-10.6l23.3-32.4l12.1-16.9c3.9,10.9,9,21.2,15.4,30.8L157.1,455.1z M416.4,398.7h-152l45-32.3
		c3.8-2.7,4.6-8,1.9-11.8c-0.3-0.4-0.6-0.7-0.9-1l-62.3-62.3c-3.3-3.3-8.7-3.3-11.9,0c-0.3,0.3-0.6,0.7-0.9,1.1l-76.6,106.4H95.6
		c-14,0-25.3-11.3-25.3-25.3V225.6h371.6v147.8C441.8,387.4,430.4,398.7,416.4,398.7z"/>
</g>
</svg>
