<?xml version="1.0" encoding="utf-8"?>
<!-- Generator: Adobe Illustrator 28.1.0, SVG Export Plug-In . SVG Version: 6.00 Build 0)  -->
<svg version="1.1" id="Layer_1" xmlns="http://www.w3.org/2000/svg" xmlns:xlink="http://www.w3.org/1999/xlink" x="0px" y="0px"
	 viewBox="0 0 512 512" style="enable-background:new 0 0 512 512;" xml:space="preserve">
<style type="text/css">
	.st0{fill:#CA9F44;}
</style>
<path class="st0" d="M428.4,421V75.9H82.6v224.8h15V180.8h315.7v29.7h-30.1v60.1h30.1V361H293.1V211.4H187.9v149.7H97.6v-45.3h-15
	V421H0v15h345.7v-15h-248v-15h315.7v15h-22.6v15H512v-15H428.4z M97.6,165.8v-45.3h270.6v-15H97.6V91h315.7v14.5h-30.1v15h30.1v45.3
	H97.6z M398.3,255.7v-30.1h15.1v30.1H398.3z M240.5,300.3c6.2,21.7,16.2,42.3,29.6,60.8h-59.2C224.3,342.6,234.3,322,240.5,300.3
	L240.5,300.3z M278,346.1c-19.5-29.4-30-63.8-30-98.9v-20.8h30V346.1z M233,226.4v20.8c0,35.2-10.6,69.6-30,99V226.4H233L233,226.4z
	 M97.6,391v-14.9h315.7V391H97.6z"/>
</svg>
