<?xml version="1.0" encoding="utf-8"?>
<!-- Generator: Adobe Illustrator 28.1.0, SVG Export Plug-In . SVG Version: 6.00 Build 0)  -->
<svg version="1.1" id="Layer_1" xmlns="http://www.w3.org/2000/svg" xmlns:xlink="http://www.w3.org/1999/xlink" x="0px" y="0px"
	 viewBox="0 0 512 512" style="enable-background:new 0 0 512 512;" xml:space="preserve">
<style type="text/css">
	.st0{fill-rule:evenodd;clip-rule:evenodd;fill:#CA9F44;stroke:#CA9F44;stroke-width:4;stroke-miterlimit:10;}
</style>
<g id="Layer_1_24_">
	<path class="st0" d="M157.3,271.1h184v-9.5h-184L157.3,271.1L157.3,271.1z M346.2,276H152.5v-19.2h193.7V276L346.2,276z"/>
	<path class="st0" d="M167.4,415.8h23V276h-23V415.8z M195.2,420.7h-32.7V271.1h32.7V420.7z"/>
	<path class="st0" d="M308.3,415.8h23V276h-23V415.8z M336.1,420.7h-32.7V271.1h32.7V420.7z"/>
	<path class="st0" d="M85.9,415.8h76.7v-25.6H85.9V415.8z M167.4,420.7H81.1v-35.3h86.4v35.3H167.4z"/>
	<path class="st0" d="M195.2,415.8h108.2V405H195.2V415.8z M308.3,420.7H190.4v-20.5h117.9V420.7z"/>
	<path class="st0" d="M195.2,400.1h108.2V391H195.2V400.1z M308.3,405H190.4v-18.9h117.9V405z"/>
	<path class="st0" d="M195.2,386.1h108.2v-7.7H195.2V386.1z M308.3,391H190.4v-17.4h117.9V391z"/>
	<path class="st0" d="M184,256.7h22.6v-78.3H184V256.7z M211.5,261.6h-32.3v-88h32.3V261.6z"/>
	<path class="st0" d="M292,256.7h22.6v-78.3H292V256.7z M319.5,261.6h-32.3v-88h32.3V261.6z"/>
	<path class="st0" d="M211.5,231.8h75.7v-53.4h-75.7L211.5,231.8L211.5,231.8z M292,236.7h-85.4v-63.1H292V236.7z"/>
	<path class="st0" d="M249.3,178.4c-14.7,0-26.7,12-26.7,26.7s12,26.7,26.7,26.7s26.7-12,26.7-26.7S264.1,178.4,249.3,178.4
		L249.3,178.4z M249.3,236.7c-17.4,0-31.6-14.2-31.6-31.6s14.2-31.6,31.6-31.6s31.6,14.2,31.6,31.6S266.7,236.7,249.3,236.7
		L249.3,236.7z"/>
	<path class="st0" d="M167.8,173.6h163.1v-10.4h14.9c2.3,0,10-0.4,13-5.6c0.7-1.2,0.7-2.3,0.2-3.2c-0.7-1.2-2.3-2-4.1-2l0,0h-0.1
		c-2.2-0.1-4.5,1-6.9,2.1c-2.8,1.3-6,2.9-9.7,2.8H160.4c-3.7,0.1-6.9-1.4-9.7-2.8c-2.4-1.2-4.7-2.2-6.9-2.1h-0.1l0,0
		c-1.8,0-3.4,0.8-4.1,2c-0.6,1-0.5,2,0.2,3.2c3,5.2,10.7,5.6,13,5.6h14.9L167.8,173.6z M335.7,178.4H162.9V168h-10.1
		c-7.9,0-14.3-3-17.2-8c-1.5-2.7-1.6-5.6-0.2-8.1c1.6-2.7,4.7-4.4,8.2-4.5c3.4-0.2,6.3,1.2,9.2,2.6c2.6,1.2,5,2.3,7.5,2.3h177.8
		c2.6,0,5-1.1,7.6-2.3c2.8-1.4,5.8-2.7,9.2-2.6c3.5,0,6.6,1.7,8.2,4.5c1.4,2.4,1.4,5.4-0.2,8.1c-2.9,5-9.3,8-17.2,8h-10.1
		L335.7,178.4z"/>
	<path class="st0" d="M183.7,120.3H315v-12.2H183.7V120.3z M319.8,125.1h-141v-21.9h141V125.1z"/>
	<path class="st0" d="M168.6,152.4h161.5c-10.3-7.8-19.2-17.7-24.4-27.2H193C187.8,134.6,178.8,144.5,168.6,152.4z M337.7,157.2
		H160.9c-1.1,0-2-0.7-2.3-1.7s0.1-2.1,1-2.7c12.5-8,24.2-20.2,29.8-31.2c0.4-0.8,1.2-1.3,2.2-1.3h115.6c0.9,0,1.7,0.5,2.2,1.3
		c5.6,10.9,17.3,23.1,29.8,31.2c0.9,0.6,1.3,1.7,1,2.7C339.8,156.5,338.8,157.2,337.7,157.2z"/>
	<path class="st0" d="M200.6,103.2h97.5c-6.5-5.3-12.7-12.5-15.5-19.7h-66.5C213.3,90.7,207,97.9,200.6,103.2z M305.5,108.1H193.2
		c-1.1,0-2-0.7-2.3-1.7s0.1-2.1,1-2.7c7.8-5,17.4-14.4,20.2-23.3c0.3-1,1.3-1.7,2.3-1.7h69.9c1.1,0,2,0.7,2.3,1.7
		c2.8,8.9,12.4,18.3,20.2,23.3c0.9,0.6,1.3,1.7,1,2.7C307.5,107.4,306.5,108.1,305.5,108.1L305.5,108.1z"/>
	<path class="st0" d="M216.8,78.7h13.3v-7.5c0-3-1.7-5.6-4.2-6.7v6.2h-2.4c-3.7,0-6.6,3.2-6.6,7.2v0.8H216.8z M234.9,83.5h-23v-5.6
		c0-5.8,3.9-10.6,9.1-11.8v-6.9h2.4c6.3,0,11.5,5.4,11.5,12V83.5z"/>
	<path class="st0" d="M268.6,78.7h13.3v-0.8c0-4-3-7.2-6.6-7.2h-2.4v-6.2c-2.5,1.1-4.2,3.7-4.2,6.7L268.6,78.7L268.6,78.7z
		 M286.7,83.5h-23V71.2c0-6.6,5.2-12,11.5-12h2.4v6.9c5.2,1.2,9.1,6,9.1,11.8V83.5z"/>
	<path class="st0" d="M241.9,68.8h14.8c-1-3.1-4-5.4-7.4-5.4C245.9,63.5,242.9,65.7,241.9,68.8z M262,73.7h-25.3v-2.4
		c0-7,5.7-12.6,12.6-12.6c7,0,12.6,5.7,12.6,12.6L262,73.7z"/>
	<path class="st0" d="M234.9,78.7h28.8v-5h-28.8L234.9,78.7L234.9,78.7z M268.6,83.5h-38.5V68.8h38.5V83.5z"/>
	<path class="st0" d="M336.1,415.8h76.7v-25.6h-76.7L336.1,415.8z M417.6,420.7h-86.4v-35.3h86.4V420.7z"/>
</g>
</svg>
