<svg width="31" height="44" viewBox="0 0 31 44" fill="none" xmlns="http://www.w3.org/2000/svg">
<path d="M29.4276 17.6116H28.2615V11.2674C28.2619 11.1066 28.2118 10.9497 28.1182 10.8189C28.0246 10.6881 27.8922 10.5901 27.7399 10.5386L25.4154 9.75611C25.2242 9.69476 25.0164 9.71106 24.8371 9.80149C24.6577 9.89192 24.521 10.0492 24.4566 10.2395C24.3922 10.4298 24.4051 10.6377 24.4927 10.8185C24.5802 10.9994 24.7353 11.1385 24.9245 11.206L26.7273 11.812V17.6116H24.771V16.4609C24.7708 15.4827 24.4634 14.5292 23.8921 13.735C23.3209 12.9408 22.5148 12.346 21.5874 12.0345L18.1122 10.8761C22.4851 7.9794 20.4224 0.968602 15.0972 0.979994C9.7734 0.979994 7.70978 7.97634 12.0825 10.8761L8.60734 12.0345C7.67997 12.3459 6.8738 12.9407 6.30259 13.7349C5.73138 14.5291 5.42396 15.4826 5.4237 16.4609V17.6116H0.767143C0.563684 17.6116 0.368558 17.6924 0.224691 17.8363C0.0808239 17.9802 0 18.1753 0 18.3787C0 18.5822 0.0808239 18.7773 0.224691 18.9212C0.368558 19.0651 0.563684 19.1459 0.767143 19.1459H2.00224L4.18093 42.4057H3.8664C3.66482 42.4085 3.47246 42.4906 3.33092 42.6342C3.18938 42.7777 3.11003 42.9712 3.11003 43.1728C3.11003 43.3744 3.18938 43.5679 3.33092 43.7115C3.47246 43.8551 3.66482 43.9371 3.8664 43.94H26.3283C26.5299 43.9371 26.7223 43.8551 26.8638 43.7115C27.0054 43.5679 27.0847 43.3744 27.0847 43.1728C27.0847 42.9712 27.0054 42.7777 26.8638 42.6342C26.7223 42.4906 26.5299 42.4085 26.3283 42.4057H26.0138L28.1925 19.1459H29.4276C29.6297 19.1439 29.8229 19.0622 29.9651 18.9185C30.1073 18.7749 30.1871 18.5809 30.1871 18.3788C30.1871 18.1766 30.1073 17.9827 29.9651 17.839C29.8229 17.6954 29.6297 17.6137 29.4276 17.6116ZM11.2233 6.38835C11.3844 1.27151 18.8103 1.27151 18.9714 6.38835C18.8103 11.5052 11.3844 11.5052 11.2233 6.38835ZM6.95798 16.4609C6.95752 15.8039 7.16405 15.1635 7.54827 14.6305C7.93248 14.0976 8.47484 13.6993 9.09831 13.4921C11.4841 12.8247 14.3839 11.1446 16.8771 12.0805L21.0964 13.4921C21.7199 13.6993 22.2623 14.0976 22.6465 14.6305C23.0307 15.1635 23.2372 15.8039 23.2368 16.4609V17.6116H6.95798V16.4609ZM24.4719 42.4057H5.72288L3.5442 19.1459H26.6505L24.4719 42.4057Z" fill="#FFFBF7"/>
<path d="M12.7654 28.7529H17.4296C17.8361 28.7517 18.2257 28.5916 18.5132 28.3076C18.8007 28.0235 18.9627 27.6386 18.9639 27.2368V22.6279C18.9627 22.2262 18.8007 21.8412 18.5132 21.5572C18.2257 21.2731 17.8361 21.113 17.4296 21.1118H12.7654C12.3588 21.113 11.9693 21.2731 11.6818 21.5572C11.3943 21.8412 11.2323 22.2262 11.2311 22.6279V27.2368C11.2323 27.6386 11.3943 28.0235 11.6818 28.3076C11.9693 28.5916 12.3588 28.7517 12.7654 28.7529ZM12.7654 24.9324C12.7654 23.6597 13.7971 22.6279 15.0698 22.6279H15.1251C16.3978 22.6279 17.4296 23.6597 17.4296 24.9324C17.4296 26.2051 16.3978 27.2368 15.1251 27.2368H15.0698C13.7971 27.2368 12.7654 26.2051 12.7654 24.9324Z" fill="#FFFBF7"/>
</svg>
