<svg width="64" height="64" viewBox="0 0 64 64" fill="none" xmlns="http://www.w3.org/2000/svg">
<path d="M44.7999 45.8892C44.21 45.8892 43.7332 46.367 43.7332 46.9558V50.8321L40.5717 52.6572C40.0607 52.9516 39.8858 53.6044 40.1813 54.1142C40.3797 54.4566 40.737 54.6476 41.1061 54.6476C41.2874 54.6476 41.4709 54.6017 41.6383 54.5046L43.7332 53.295V54.4001C43.7332 56.1644 42.2975 57.6001 40.5333 57.6001H14.9334C13.7942 57.6001 12.7649 57.0006 12.1803 55.9969C11.8849 55.4881 11.23 55.3142 10.7222 55.6118C10.2124 55.9084 10.0406 56.5612 10.3372 57.071C11.1094 58.3969 12.4086 59.3057 13.8678 59.6118V60.8001C13.8678 62.5644 15.3035 64.0001 17.0678 64.0001C18.832 64.0001 20.2678 62.5644 20.2678 60.8001V59.7334H35.201V60.8001C35.201 62.5644 36.6367 64.0001 38.401 64.0001C40.1653 64.0001 41.601 62.5644 41.601 60.8001V59.6257C44.0319 59.1297 45.8676 56.9761 45.8676 54.4001V46.9558C45.8666 46.366 45.3898 45.8892 44.7999 45.8892ZM18.1334 60.8001C18.1334 61.3878 17.6555 61.8668 17.0667 61.8668C16.4779 61.8668 16.0001 61.3878 16.0001 60.8001V59.7334H18.1334V60.8001ZM39.4666 60.8001C39.4666 61.3878 38.9887 61.8668 38.3999 61.8668C37.8111 61.8668 37.3333 61.3878 37.3333 60.8001V59.7334H39.4666V60.8001Z" fill="#F2CCA2"/>
<path d="M17.0665 39.4669C17.0665 35.9373 14.1961 33.0669 10.6666 33.0669C7.13699 33.0669 4.2666 35.9373 4.2666 39.4669C4.2666 42.9965 7.13699 45.8669 10.6666 45.8669C14.1961 45.8669 17.0665 42.9965 17.0665 39.4669ZM11.682 38.4002H9.65004C9.81431 36.5528 10.37 35.4594 10.6655 35.2269C10.962 35.4594 11.5178 36.5528 11.682 38.4002ZM11.682 40.5336C11.5178 42.381 10.962 43.4744 10.6666 43.7069C10.3711 43.4744 9.81537 42.381 9.65111 40.5336H11.682ZM13.4847 42.6456C13.6564 41.9821 13.7706 41.2632 13.825 40.5336H14.7817C14.5652 41.3645 14.1087 42.092 13.4847 42.6456ZM14.7817 38.4002H13.825C13.7695 37.6696 13.6564 36.9517 13.4847 36.2882C14.1087 36.8418 14.5652 37.5693 14.7817 38.4002ZM7.84845 36.2882C7.67672 36.9517 7.56365 37.6696 7.50818 38.4002H6.55139C6.76792 37.5693 7.22445 36.8418 7.84845 36.2882ZM6.55139 40.5336H7.50818C7.56365 41.2642 7.67672 41.9821 7.84845 42.6456C7.22445 42.092 6.76792 41.3645 6.55139 40.5336Z" fill="#F2CCA2"/>
<path d="M21.3332 52.2667V26.6667C21.3332 26.0779 20.8564 25.6 20.2666 25.6H11.7333V24.5333C11.7333 22.7691 13.169 21.3333 14.9332 21.3333H40.5331C41.123 21.3333 41.5998 20.8555 41.5998 20.2667C41.5998 19.6779 41.123 19.2 40.5331 19.2V4.26667C40.5331 2.5024 39.0974 1.06667 37.3331 1.06667H35.4345C34.8478 0.417067 34.0083 0 33.0665 0H22.3999C21.458 0 20.6186 0.417067 20.0319 1.06667H18.1332C16.369 1.06667 14.9332 2.5024 14.9332 4.26667V19.2C11.9925 19.2 9.59995 21.5925 9.59995 24.5333V25.6H1.06666C0.476797 25.6 0 26.0779 0 26.6667V43.7334C0 44.3222 0.476797 44.8 1.06666 44.8C1.65652 44.8 2.13332 44.3222 2.13332 43.7334V27.7334H19.1999V51.2H2.13332V48C2.13332 47.4112 1.65652 46.9334 1.06666 46.9334C0.476797 46.9334 0 47.4112 0 48V52.2667C0 52.8555 0.476797 53.3334 1.06666 53.3334H20.2666C20.8564 53.3334 21.3332 52.8555 21.3332 52.2667ZM37.3331 3.2C37.9219 3.2 38.3998 3.67894 38.3998 4.26667V19.2H36.2665V3.2H37.3331ZM22.3999 2.13333H33.0665C33.6553 2.13333 34.1331 2.61227 34.1331 3.2V5.33334C34.1331 5.92107 33.6553 6.4 33.0665 6.4H22.3999C21.8111 6.4 21.3332 5.92107 21.3332 5.33334V3.2C21.3332 2.61227 21.8111 2.13333 22.3999 2.13333ZM17.0666 4.26667C17.0666 3.67894 17.5444 3.2 18.1332 3.2H19.1999V5.33334C19.1999 7.0976 20.6356 8.53334 22.3999 8.53334H33.0665C33.4419 8.53334 33.7982 8.45654 34.1331 8.33707V19.2H21.3332V10.6667C21.3332 10.0779 20.8564 9.60001 20.2666 9.60001C19.6767 9.60001 19.1999 10.0779 19.1999 10.6667V19.2H17.0666V4.26667Z" fill="#F2CCA2"/>
<path d="M33.2462 52.8371C33.4446 53.1795 33.802 53.3704 34.171 53.3704C34.3524 53.3704 34.5358 53.3246 34.7033 53.2275L38.3982 51.0942C38.9091 50.7998 39.0841 50.147 38.7886 49.6371C38.4931 49.1262 37.8382 48.9523 37.3315 49.2467L33.6366 51.38C33.1268 51.6744 32.9518 52.3272 33.2462 52.8371Z" fill="#F2CCA2"/>
<path d="M55.7875 41.681L54.5022 38.4799L63.4664 33.3045C63.7106 33.1626 63.8898 32.9301 63.9634 32.657C64.037 32.3839 63.9986 32.0927 63.8568 31.8474C61.2104 27.2629 55.331 25.6874 50.7432 28.3338L49.1689 29.2426L47.0377 26.529C44.4596 23.2437 39.7854 22.3434 36.1705 24.4298C35.9263 24.5717 35.7471 24.8042 35.6735 25.0773C35.5999 25.3503 35.6383 25.6415 35.7801 25.8869L39.1454 31.7151C39.3438 32.0575 39.7012 32.2485 40.0702 32.2485C40.2516 32.2485 40.435 32.2026 40.6025 32.1055C41.1134 31.8111 41.2884 31.1583 40.9929 30.6485L38.2068 25.8239C40.7284 24.897 43.6553 25.6757 45.3598 27.8474L47.3011 30.321L33.1903 38.4682C31.7215 35.9231 28.4543 35.0463 25.905 36.5162C25.6607 36.6581 25.4815 36.8906 25.4079 37.1637C25.3343 37.4367 25.3727 37.7279 25.5146 37.9733L28.1812 42.5919C29.6842 45.1925 32.3913 46.7146 35.282 46.7146C35.9188 46.7146 36.5641 46.641 37.2084 46.4885C39.1433 46.0309 41.0825 45.4111 42.9694 44.6463C43.5156 44.4245 43.778 43.8026 43.5572 43.2575C43.3364 42.7103 42.7113 42.4479 42.1673 42.6698C40.3806 43.3941 38.546 43.9807 36.7167 44.4127C34.4319 44.9525 32.1044 44.1557 30.642 42.4042L51.8099 30.1834C53.0259 29.4805 54.3592 29.1615 55.6702 29.1861L54.1907 30.0405C53.6798 30.3349 53.5048 30.9877 53.8003 31.4975C53.9987 31.8399 54.356 32.0309 54.7251 32.0309C54.9064 32.0309 55.0899 31.985 55.2574 31.8879L58.7091 29.8954C59.7416 30.3775 60.6749 31.0954 61.4109 32.0309L53.7 36.4821L52.5523 33.6234C52.3336 33.0762 51.7118 32.8117 51.1656 33.0303C50.6184 33.2501 50.3528 33.8709 50.5726 34.4181L53.8078 42.4778C54.835 45.0378 54.0467 47.9626 51.9827 49.6831L45.0953 37.7535C44.7998 37.2426 44.146 37.0677 43.6382 37.3631C43.1273 37.6575 42.9524 38.3103 43.2478 38.8202L50.7144 51.7535C50.9128 52.0959 51.2702 52.2869 51.6392 52.2869C51.8206 52.2869 52.004 52.241 52.1715 52.1439C55.7886 50.0543 57.3437 45.5573 55.7875 41.681ZM31.3439 39.5327L29.9583 40.3327L29.4964 40.5994L27.9882 37.9871C29.2831 37.7471 30.6484 38.3285 31.3439 39.5327Z" fill="#F2CCA2"/>
</svg>
