<svg width="384" height="431" viewBox="0 0 384 431" fill="none" xmlns="http://www.w3.org/2000/svg">
<path d="M362.7 48.6001C362.7 48.5001 362.7 48.4001 362.7 48.4001C362.7 22.1001 341.3 0.600098 314.9 0.600098C293.3 0.600098 275 15.0001 269.1 34.7001H110.1C106.3 34.7001 103.3 37.8001 103.3 41.5001V70.6001C95.6 65.2001 86.1 62.0001 76 62.0001C52 62.0001 32 79.8001 28.7 103C13.6 102.6 0.900002 115.1 0.900002 130.3C0.900002 145.4 13.2 157.6 28.2 157.6H103.3V168.7L76.9 198.4C58.7 218.9 48.7 245.3 48.7 272.7V341C48.7 356.2 46.2 371.2 41.2 385.6L28.6 421.7C27.9 423.8 28.2 426.1 29.5 427.9C30.8 429.7 32.9 430.8 35.1 430.8H101.3C104.3 430.8 107 428.8 107.9 425.8L121.5 378.1C141 372.3 155.1 355.2 157.5 335.2H301.4C305.2 335.2 308.2 332.1 308.2 328.4V96.2001H359.4C372.6 96.2001 383.3 85.5001 383.3 72.3001C383.1 60.3001 374.2 50.3001 362.7 48.6001ZM14.5 130.3C14.5 122.8 20.6 116.6 28.2 116.6C29.6 116.6 31.1 116.9 32.8 117.5C34.9 118.3 37.3 117.9 39.1 116.6C40.9 115.3 42 113.1 41.9 110.9C41.9 110.8 41.8 109.9 41.8 109.8C41.8 91.0001 57.1 75.7001 75.9 75.7001C94.7 75.7001 110 91.0001 110 109.8C110 111.8 109.8 113.8 109.4 115.9C109 118.2 109.7 120.5 111.4 122.1C113.1 123.7 115.5 124.3 117.7 123.8C118.7 123.6 119.5 123.4 120.2 123.4C125.8 123.4 130.4 128 130.4 133.6C130.4 139.2 126 144 120.3 144H28.2C20.6 144 14.5 137.8 14.5 130.3ZM144.2 329.1C144.2 346.7 131.7 362.1 114.4 365.7C111.9 366.2 109.9 368.1 109.2 370.5L96 417H44.6L54 390C59.5 374.2 62.3 357.7 62.3 340.9V272.6C62.3 248.5 71.1 225.4 87.1 207.4L103.3 189.2V272L95.1 288.4C93.4 291.8 94.8 295.9 98.2 297.6C101.6 299.3 105.7 297.9 107.4 294.5L138.9 231.4C140.4 228.5 143.8 227 146.9 228.1C149.1 228.8 150.5 230.5 151.1 232.6V236.8L144.4 275.6C144.3 276 144.3 276.4 144.3 276.8V317.7L144.2 329.1ZM194.8 201.7L187.6 172.3C187.1 170.3 185.7 168.6 183.8 167.7C181.9 166.8 179.7 166.9 177.8 167.8L144.7 184.8V178.9C144.7 173.5 147.4 168.4 151.9 165.3L184.8 142.8C186.7 141.5 187.8 139.4 187.8 137.2C187.8 124 191.3 111 198 99.6001C199.4 97.3001 201.6 97.0001 202.5 97.0001C203.4 97.0001 205.6 97.3001 207 99.6001C213.7 111 217.2 124 217.2 137.2C217.2 139.5 218.3 141.6 220.2 142.8L253.1 165.3C257.6 168.4 260.3 173.5 260.3 178.9V184.8L227.2 167.8C225.3 166.8 223.1 166.8 221.2 167.7C219.3 168.6 217.9 170.3 217.4 172.3L210.2 201.7C209.5 204.4 210.6 207.2 212.8 208.8L239.8 228.8V243.7L205.6 226.6C203.7 225.7 201.4 225.6 199.5 226.6L164.7 243.8V238.1V238C165.1 235.6 165.1 233.2 164.7 230.9V228.9L192.2 208.9C194.4 207.2 195.4 204.4 194.8 201.7ZM157.9 321.5V317.8V280.6H294.4V321.6L157.9 321.5ZM294.4 266.8H159.7L160.7 260.9C160.8 260.9 160.8 260.9 160.9 260.9L202.5 240.4L243.6 260.9C245.7 262 248.2 261.9 250.2 260.6C252.2 259.4 253.4 257.2 253.4 254.8V225.4C253.4 223.2 252.4 221.2 250.6 219.9L224.5 200.5L228.6 183.9L264 202C266.1 203.1 268.6 203 270.7 201.8C272.7 200.6 274 198.4 274 196V178.9C274 168.9 269.1 159.7 260.9 154L230.9 133.5C230.3 119.1 226.2 105.1 218.9 92.6001C215.5 86.8001 209.4 83.3001 202.6 83.3001C195.8 83.3001 189.8 86.8001 186.3 92.6001C179 105 174.9 119.1 174.3 133.5L144.3 154C136.1 159.6 131.2 168.9 131.2 178.9V196C131.2 198.4 132.4 200.6 134.5 201.8C136.5 203 139.1 203.1 141.2 202L176.6 183.9L180.6 200.5L156.6 218C155 216.9 153.3 215.9 151.3 215.3C141.8 212.1 131.2 216.5 126.7 225.5L117 244.9V171.4V157.7H120.4C133.6 157.7 144.3 147 144.3 133.8C144.3 121.8 135.4 111.8 123.8 110.1C123.8 110 123.8 109.9 123.8 109.9C123.8 100.7 121.1 92.2001 116.6 84.9001C116.7 84.4001 116.9 83.8001 116.9 83.2001V48.4001H249.2C243.5 53.4001 239.8 60.7001 239.8 68.9001C239.8 84.0001 252.1 96.2001 267.1 96.2001H294.4V266.8ZM359.3 82.5001H267.1C259.6 82.5001 253.4 76.4001 253.4 68.8001C253.4 61.3001 259.5 55.1001 267.1 55.1001C268.5 55.1001 270 55.4001 271.7 56.0001C273.8 56.8001 276.2 56.4001 278 55.1001C279.8 53.8001 280.9 51.6001 280.8 49.4001C280.8 49.3001 280.7 48.4001 280.7 48.3001C280.7 29.5001 296 14.2001 314.8 14.2001C333.6 14.2001 349 29.6001 349 48.4001C349 50.4001 348.8 52.4001 348.4 54.5001C348 56.8001 348.7 59.1001 350.4 60.7001C352.1 62.3001 354.5 62.9001 356.7 62.4001C357.7 62.2001 358.5 62.0001 359.2 62.0001C364.8 62.0001 369.4 66.6001 369.4 72.2001C369.4 77.8001 364.9 82.5001 359.3 82.5001Z" fill="#CA9F44"/>
</svg>
