<?xml version="1.0" encoding="utf-8"?>
<!-- Generator: Adobe Illustrator 28.1.0, SVG Export Plug-In . SVG Version: 6.00 Build 0)  -->
<svg version="1.1" id="Layer_1" xmlns="http://www.w3.org/2000/svg" xmlns:xlink="http://www.w3.org/1999/xlink" x="0px" y="0px"
	 viewBox="0 0 512 512" style="enable-background:new 0 0 512 512;" xml:space="preserve">
<style type="text/css">
	.st0{fill:#CA9F44;}
</style>
<path class="st0" d="M426.7,98.6c0-0.1,0-0.2,0-0.2c0-26.3-21.4-47.8-47.8-47.8c-21.6,0-39.9,14.4-45.8,34.1h-159
	c-3.8,0-6.8,3.1-6.8,6.8v29.1c-7.7-5.4-17.2-8.6-27.3-8.6c-24,0-44,17.8-47.3,41c-15.1-0.4-27.8,12.1-27.8,27.3
	c0,15.1,12.3,27.3,27.3,27.3h75.1v11.1l-26.4,29.7c-18.2,20.5-28.2,46.9-28.2,74.3V391c0,15.2-2.5,30.2-7.5,44.6l-12.6,36.1
	c-0.7,2.1-0.4,4.4,0.9,6.2c1.3,1.8,3.4,2.9,5.6,2.9h66.2c3,0,5.7-2,6.6-5l13.6-47.7c19.5-5.8,33.6-22.9,36-42.9h143.9
	c3.8,0,6.8-3.1,6.8-6.8V146.2h51.2c13.2,0,23.9-10.7,23.9-23.9C447.1,110.3,438.2,100.3,426.7,98.6L426.7,98.6z M78.5,180.3
	c0-7.5,6.1-13.7,13.7-13.7c1.4,0,2.9,0.3,4.6,0.9c2.1,0.8,4.5,0.4,6.3-0.9c1.8-1.3,2.9-3.5,2.8-5.7c0-0.1-0.1-1-0.1-1.1
	c0-18.8,15.3-34.1,34.1-34.1S174,141,174,159.8c0,2-0.2,4-0.6,6.1c-0.4,2.3,0.3,4.6,2,6.2c1.7,1.6,4.1,2.2,6.3,1.7
	c1-0.2,1.8-0.4,2.5-0.4c5.6,0,10.2,4.6,10.2,10.2S190,194,184.3,194H92.2C84.6,194,78.5,187.8,78.5,180.3L78.5,180.3z M208.2,379.1
	c0,17.6-12.5,33-29.8,36.6c-2.5,0.5-4.5,2.4-5.2,4.8L160,467h-51.4l9.4-27c5.5-15.8,8.3-32.3,8.3-49.1v-68.3
	c0-24.1,8.8-47.2,24.8-65.2l16.2-18.2V322l-8.2,16.4c-1.7,3.4-0.3,7.5,3.1,9.2c3.4,1.7,7.5,0.3,9.2-3.1l31.5-63.1
	c1.5-2.9,4.9-4.4,8-3.3c2.2,0.7,3.6,2.4,4.2,4.5v4.2l-6.7,38.8c-0.1,0.4-0.1,0.8-0.1,1.2v40.9L208.2,379.1L208.2,379.1z
	 M258.8,251.7l-7.2-29.4c-0.5-2-1.9-3.7-3.8-4.6c-1.9-0.9-4.1-0.8-6,0.1l-33.1,17v-5.9c0-5.4,2.7-10.5,7.2-13.6l32.9-22.5
	c1.9-1.3,3-3.4,3-5.6c0-13.2,3.5-26.2,10.2-37.6c1.4-2.3,3.6-2.6,4.5-2.6s3.1,0.3,4.5,2.6c6.7,11.4,10.2,24.4,10.2,37.6
	c0,2.3,1.1,4.4,3,5.6l32.9,22.5c4.5,3.1,7.2,8.2,7.2,13.6v5.9l-33.1-17c-1.9-1-4.1-1-6-0.1s-3.3,2.6-3.8,4.6l-7.2,29.4
	c-0.7,2.7,0.4,5.5,2.6,7.1l27,20v14.9l-34.2-17.1c-1.9-0.9-4.2-1-6.1,0l-34.8,17.2v-5.7V288c0.4-2.4,0.4-4.8,0-7.1v-2l27.5-20
	C258.4,257.2,259.4,254.4,258.8,251.7L258.8,251.7z M221.9,371.5v-3.7v-37.2h136.5v41L221.9,371.5L221.9,371.5z M358.4,316.8H223.7
	l1-5.9c0.1,0,0.1,0,0.2,0l41.6-20.5l41.1,20.5c2.1,1.1,4.6,1,6.6-0.3c2-1.2,3.2-3.4,3.2-5.8v-29.4c0-2.2-1-4.2-2.8-5.5l-26.1-19.4
	l4.1-16.6L328,252c2.1,1.1,4.6,1,6.7-0.2c2-1.2,3.3-3.4,3.3-5.8v-17.1c0-10-4.9-19.2-13.1-24.9l-30-20.5c-0.6-14.4-4.7-28.4-12-40.9
	c-3.4-5.8-9.5-9.3-16.3-9.3s-12.8,3.5-16.3,9.3c-7.3,12.4-11.4,26.5-12,40.9l-30,20.5c-8.2,5.6-13.1,14.9-13.1,24.9V246
	c0,2.4,1.2,4.6,3.3,5.8c2,1.2,4.6,1.3,6.7,0.2l35.4-18.1l4,16.6l-24,17.5c-1.6-1.1-3.3-2.1-5.3-2.7c-9.5-3.2-20.1,1.2-24.6,10.2
	l-9.7,19.4v-73.5v-13.7h3.4c13.2,0,23.9-10.7,23.9-23.9c0-12-8.9-22-20.5-23.7c0-0.1,0-0.2,0-0.2c0-9.2-2.7-17.7-7.2-25
	c0.1-0.5,0.3-1.1,0.3-1.7V98.4h132.3c-5.7,5-9.4,12.3-9.4,20.5c0,15.1,12.3,27.3,27.3,27.3h27.3V316.8z M423.3,132.5h-92.2
	c-7.5,0-13.7-6.1-13.7-13.7c0-7.5,6.1-13.7,13.7-13.7c1.4,0,2.9,0.3,4.6,0.9c2.1,0.8,4.5,0.4,6.3-0.9s2.9-3.5,2.8-5.7
	c0-0.1-0.1-1-0.1-1.1c0-18.8,15.3-34.1,34.1-34.1S413,79.6,413,98.4c0,2-0.2,4-0.6,6.1c-0.4,2.3,0.3,4.6,2,6.2s4.1,2.2,6.3,1.7
	c1-0.2,1.8-0.4,2.5-0.4c5.6,0,10.2,4.6,10.2,10.2S428.9,132.5,423.3,132.5L423.3,132.5z"/>
</svg>
