<?xml version="1.0" encoding="utf-8"?>
<!-- Generator: Adobe Illustrator 28.1.0, SVG Export Plug-In . SVG Version: 6.00 Build 0)  -->
<svg version="1.1" id="Layer_1" xmlns="http://www.w3.org/2000/svg" xmlns:xlink="http://www.w3.org/1999/xlink" x="0px" y="0px"
	 viewBox="0 0 512 512" style="enable-background:new 0 0 512 512;" xml:space="preserve">
<style type="text/css">
	.st0{fill:#CA9F44;}
</style>
<path class="st0" d="M455.1,265.9c-1.6-1.3-3.7-1.8-5.7-1.3L443,266c-13,2.9-26.2,4.5-39.5,5v-20.1c0-2.3-0.3-4.7-0.9-6.9
	c11.7,6.6,21.3,10,28.9,10c5,0,9-1.4,12.2-4.3c14-12.6-0.6-43.8-16.4-69.2l26.5-37.3c5.6-7.7,4.9-18.3-1.5-25.4l-58-64.2
	c-6.3-7.1-16.8-8.8-25.1-4.1L331.5,71c-23.3-19.7-61.6-47.2-78.2-32.3c-9.5,8.6-7,26.6,7.4,53.6c3.2,6,6.9,12.3,11.1,18.8
	c-4.7-1.5-9.7-2.3-14.6-2.3h-23.7l-2.3-21.2c-2.6-24.4-24.5-42-48.9-39.4c-20.8,2.2-37.2,18.6-39.4,39.4l-2.3,21.2h-23.7
	c-25,0-45.6,19.4-47.3,44.3L54.5,389.9c-1.7,26.1,18.1,48.6,44.2,50.3c1,0.1,2,0.1,3,0.1h58.2v-13.5h-39.8l18.1-169.1h60.6
	c-7,2-13.8,4.3-20.5,7l-0.5,0.2c-2.6,1-4.2,3.5-4.2,6.3v155.6c0,3.7,3,6.8,6.8,6.8c0.9,0,1.7-0.2,2.5-0.5l0.5-0.2
	c42.1-16.8,88.6-19.1,132.2-6.8l18.9,5.4c36.3,10.3,74.6,11.5,111.4,3.3l6.4-1.4c3.1-0.7,5.3-3.4,5.3-6.6V271.2
	C457.6,269.1,456.7,267.2,455.1,265.9z M376,61.3c2.8-1.6,6.2-1,8.4,1.4l58,64.2l0,0c2.1,2.3,2.3,5.9,0.5,8.4L416.1,173
	c-38.3-16.7-67.5-49.1-80.2-88.9L376,61.3z M262.4,48.7c3.3-3,22.6,1.1,58.7,31.2c-0.1,0.9-0.1,1.8,0.2,2.7
	c6.6,23.6,18.6,45.4,35,63.6c16.4,18.1,36.8,32.2,59.5,41.2c8.6,13.8,14.8,26.1,17.9,35.9c3.3,10.5,2.2,15.1,1,16.2
	c-1.8,1.6-11.8,2.3-36-14c-21.4-14.4-46.3-36.9-70.2-63.3c-23.9-26.4-43.7-53.5-55.8-76.3C258.9,60.2,260.6,50.4,262.4,48.7z
	 M362.9,237.3h13.5c7.5,0,13.5,6.1,13.5,13.5v113.5c-5.1-3.4-11.1-5.3-17.2-5.3h-9.8V237.3z M356.1,223.8c-3.7,0-6.8,3-6.8,6.8v35.1
	c-3.8-0.9-7.5-1.8-11.2-2.9l-18.9-5.4c-2.8-0.8-5.5-1.5-8.3-2.2l-6.4-99.9c4.4,5.3,9.1,10.6,13.8,16c18.3,20.3,37.3,38.4,55,52.5
	L356.1,223.8L356.1,223.8z M297.2,252.4c-3.9-0.7-7.9-1.3-11.8-1.7c3.6-2.2,6.9-4.9,9.8-8c0.5-0.5,0.9-1,1.3-1.5L297.2,252.4z
	 M257.2,122.3c17.8,0,32.6,13.9,33.8,31.7l3.5,54.1c1.2,18.6-13,34.7-31.6,35.9c-0.7,0-1.4,0.1-2.1,0.1h-12.7l-13-121.8H257.2z
	 M156.3,89c1.8-17,17-29.2,34-27.4c14.4,1.5,25.9,13,27.4,27.4l2.1,19.8h-65.6L156.3,89z M106.5,426.7h-4.8
	c-18.7,0-33.8-15.1-33.8-33.8c0-0.7,0-1.4,0.1-2.2l9.5-149.6c0.4,0.5,0.9,1,1.3,1.5c8.9,9.6,21.4,15,34.5,15h11.2L106.5,426.7z
	 M126.1,244.1h-12.7c-18.7,0-33.8-15.1-33.8-33.8c0-0.7,0-1.4,0.1-2.1l3.5-54.1c1.2-17.8,15.9-31.6,33.8-31.7h22.3L126.1,244.1z
	 M139.7,244.1l13-121.8h68.5l13,121.8H139.7z M318.8,412.9c-43.3-12.2-89.3-10.8-131.8,4.1V275.8c41.2-15.5,86.2-17.3,128.5-5.3
	l18.9,5.4c4.9,1.4,9.9,2.6,14.9,3.7v86.3c0,3.7,3,6.8,6.8,6.8h16.6c9.5,0,17.2,7.7,17.2,17.2c0,7.2-4.4,13.6-11.2,16.1
	C359.6,413.1,339.1,415.5,318.8,412.9z M444.1,421.3l-1.1,0.3c-25.7,5.7-52.3,6.6-78.3,2.6c6.4-1.4,12.7-3.3,18.9-5.6
	c4.5-1.7,8.6-4.5,11.8-8c1.9,0.6,3.8,1.3,5.6,2c3.5,1.4,7.4-0.3,8.8-3.8c0.3-0.8,0.5-1.7,0.5-2.5c0-7.5,6.1-13.5,13.5-13.5
	c3.7,0,6.8-3,6.8-6.8v-20.3H417v14.4c-5.2,1.4-10,4.3-13.5,8.3v-59c3.6,4.1,8.3,7,13.5,8.3v14.4h13.5v-20.3c0-3.7-3-6.8-6.8-6.8
	c-7.5,0-13.5-6.1-13.5-13.5c0-3-2-5.7-4.9-6.5l-1.9-0.5v-20.1c13.6-0.4,27.2-2,40.6-4.9L444.1,421.3L444.1,421.3z"/>
</svg>
